# xmcd
#
# Track frame offsets:
#	150
#	13602
#	29117
#	42905
#	53232
#	61010
#	68207
#	81460
#	90200
#	101165
#	113065
#	124602
#	135030
#	144055
#	165342
#	174100
#	185857
#	200197
#	210475
#
# Disc length: 2949 seconds
#
# Revision: 1
# Processed by: cddbd v1.5.1PL0 Copyright (c) Steve Scherf et al.
# Submitted via: audiograbber 1.83.01
#
DISCID=fb0b8313
DTITLE=Country - The Country Collection Disk #10
DYEAR=1900
DGENRE=Country
TTITLE0=George Jones - No Show Jones
TTITLE1=George Jones - He Stopped Loving Her Today
TTITLE2=George Jones - Who's Gonna Fill Their Shoes
TTITLE3=George Jones - The One I Loved Back Then
TTITLE4=Johnny Tillostson - Send Me The Pillow thaat You Dream On
TTITLE5=Johnny Tillostson - Heartaches By The Number
TTITLE6=Johnny Tillostson - Let It Be Me
TTITLE7=Johnny Tillostson - that's Alright Mama
TTITLE8=Waylon Jennings - Sally Was A Good Old Girl
TTITLE9=Waylon Jennings - Don't Think Twice
TTITLE10=Waylon Jennings - Crying
TTITLE11=Waylon Jennings - Dream Baby
TTITLE12=Dottie West - Rocky Top
TTITLE13=Dottie West - Meley-Crazy, I Fall To Pieces, Sweet Dreams, Crazy
TTITLE14=Don Gibson - Blue Blue Day
TTITLE15=Don Gibson - Oh Lonesome Me
TTITLE16=Don Gibson - I Can't Stop Loving You
TTITLE17=Don Gibson - Lonesome Number One
TTITLE18=Cole Joye - China Doll - Rose Madrie
EXTD=
EXTT0=
EXTT1=
EXTT2=
EXTT3=
EXTT4=
EXTT5=
EXTT6=
EXTT7=
EXTT8=
EXTT9=
EXTT10=
EXTT11=
EXTT12=
EXTT13=
EXTT14=
EXTT15=
EXTT16=
EXTT17=
EXTT18=
PLAYORDER=
